<svg xmlns="http://www.w3.org/2000/svg" xmlns:xlink="http://www.w3.org/1999/xlink" xmlns:lucid="lucid" width="916.74" height="342.33"><g transform="translate(-105.2592592592593 -319)" lucid:page-tab-id="ULy1j7.~0FV9"><path d="M0 0h1500v1000H0z" fill="#fff"/><path d="M166.26 567.67c0 11.04-8.95 20-20 20s-20-8.96-20-20c0-11.05 8.95-20 20-20s20 8.95 20 20z" stroke="#282c33" stroke-width="2"/><path d="M302.26 527.67c-8.84 0-16 7.16-16 16v48c0 8.83 7.16 16 16 16h128c8.84 0 16-7.17 16-16v-48c0-8.84-7.16-16-16-16z" stroke="#282c33" stroke-width="2" fill="#fff"/><use xlink:href="#a" transform="matrix(1,0,0,1,294.2592592592593,535.6666666666667) translate(25.271604938271608 36.44444444444444)"/><use xlink:href="#b" transform="matrix(1,0,0,1,294.2592592592593,535.6666666666667) translate(74.46913580246914 36.44444444444444)"/><path d="M268.88 567.67H167.75" stroke="#3a414a" fill="none"/><path d="M283.64 567.67l-14.26 4.63v-9.27z" stroke="#3a414a" fill="#3a414a"/><path d="M167.77 568.14h-.56l.06-.43-.02-.5h.53z" stroke="#3a414a" stroke-width=".05" fill="#3a414a"/><path d="M594.33 340c-8.84 0-16 7.16-16 16v48c0 8.84 7.16 16 16 16h128c8.83 0 16-7.16 16-16v-48c0-8.84-7.17-16-16-16z" stroke="#282c33" stroke-width="2" fill="#fff"/><use xlink:href="#c" transform="matrix(1,0,0,1,586.3258040406992,348) translate(39.96296296296296 36.44444444444444)"/><path d="M366.73 526.17h-.95V418.5h.95zm194.2-145.7H372.3l-.88.07-.85.2-.8.34-.74.45-.65.56-.56.65-.46.74-.33.8-.2.84-.07.88v11.14h-.95v-11.18l.08-1 .24-.98.4-.94.52-.87.66-.78.77-.66.87-.53.94-.4 1-.23.98-.08h188.7z" stroke="#3a414a" stroke-width=".05" fill="#3a414a"/><path d="M366.73 526.67h-.95v-.52h.95z" fill="#3a414a"/><path stroke="#3a414a" stroke-width=".05" fill="#3a414a"/><path d="M575.7 380l-14.26 4.63v-9.26z" fill="#3a414a"/><path d="M577.25 380l-16.28 5.3v-10.6zm-15.33 3.98l12.25-3.98-12.25-3.98z" stroke="#3a414a" stroke-width=".05" fill="#3a414a"/><use xlink:href="#d" transform="matrix(1,0,0,1,307.14814814814815,397.1557451900586) translate(0 14.222222222222223)"/><use xlink:href="#e" transform="matrix(1,0,0,1,307.14814814814815,397.1557451900586) translate(81.67901234567901 14.222222222222223)"/><path d="M480.4 568.14h-32.64v-.95h32.65zm82.22 0H490.3v-.95h72.32z" stroke="#3a414a" stroke-width=".05" fill="#3a414a"/><path d="M447.77 568.14h-.5v-.95h.5z" fill="#3a414a"/><path stroke="#3a414a" stroke-width=".05" fill="#3a414a"/><path d="M577.38 567.67l-14.26 4.63v-9.27z" fill="#3a414a"/><path d="M578.92 567.67l-16.28 5.3v-10.6zm-15.33 3.98l12.25-3.98-12.26-4z" stroke="#3a414a" stroke-width=".05" fill="#3a414a"/><use xlink:href="#f" transform="matrix(1,0,0,1,480.4092970521543,557.0000000000001) translate(0 14.222222222222223)"/><path d="M596 527.67c-8.84 0-16 7.16-16 16v48c0 8.83 7.16 16 16 16h128c8.84 0 16-7.17 16-16v-48c0-8.84-7.16-16-16-16z" stroke="#282c33" stroke-width="2" fill="#fff"/><use xlink:href="#g" transform="matrix(1,0,0,1,588,535.6666666666667) translate(51.01234567901235 36.44444444444444)"/><path d="M816 527.67c-8.84 0-16 7.16-16 16v48c0 8.83 7.16 16 16 16h128c8.84 0 16-7.17 16-16v-48c0-8.84-7.16-16-16-16z" stroke="#282c33" stroke-width="2" fill="#fff"/><use xlink:href="#h" transform="matrix(1,0,0,1,808,535.6666666666667) translate(49.22222222222223 36.44444444444444)"/><path d="M660.84 642.65l.07.88.2.84.34.8.45.74.56.67.65.56.75.46.8.32.85.2.88.07h18.76v.94h-18.8l-1-.08-.98-.23-.94-.4-.87-.52-.77-.65-.66-.78-.53-.86-.4-.93-.24-1-.07-1v-33.5h.94zm59.44.03l-.08 1-.24 1-.4.93-.52.87-.66.78-.77.66-.86.54-.94.4-.98.22-1 .08h-18.8v-.95h18.76l.9-.08.83-.2.8-.33.75-.47.66-.56.57-.66.45-.73.33-.8.2-.84.08-.88v-17.6h.95z" stroke="#3a414a" stroke-width=".05" fill="#3a414a"/><path d="M660.84 609.18h-.95v-.5h.94z" fill="#3a414a"/><path stroke="#3a414a" stroke-width=".05" fill="#3a414a"/><path d="M724.44 624.55h-9.27l4.63-14.26z" fill="#3a414a"/><path d="M725.1 625.03h-10.6l5.3-16.28zm-9.28-.95h7.96l-3.98-12.26z" stroke="#3a414a" stroke-width=".05" fill="#3a414a"/><use xlink:href="#f" transform="matrix(1,0,0,1,685.1435081408781,638.0000000000001) translate(0 14.222222222222223)"/><path d="M757.2 570.05h-15.7v-.95h15.7zm25.42 0h-15.54v-.95h15.54z" stroke="#3a414a" stroke-width=".05" fill="#3a414a"/><path d="M741.5 570.05h-.5v-.95h.5z" fill="#3a414a"/><path stroke="#3a414a" stroke-width=".05" fill="#3a414a"/><path d="M797.38 569.57l-14.26 4.64v-9.26z" fill="#3a414a"/><path d="M798.92 569.57l-16.28 5.3v-10.6zm-15.33 3.98l12.25-3.98-12.26-3.98z" stroke="#3a414a" stroke-width=".05" fill="#3a414a"/><use xlink:href="#i" transform="matrix(1,0,0,1,757.2051453178749,558.9052565571665) translate(0 14.222222222222223)"/><path d="M880.48 526.17h-.96V469.9h.96zM875 379.6l1 .24.94.4.87.52.78.66.66.77.53.86.4.94.23 1 .08.98v62.6h-.96V386l-.06-.88-.2-.85-.34-.8-.45-.75-.56-.66-.65-.57-.74-.45-.8-.33-.84-.2-.88-.07H755.7v-.96h118.32z" stroke="#3a414a" stroke-width=".05" fill="#3a414a"/><path d="M880.48 526.67h-.96v-.52h.96z" fill="#3a414a"/><path stroke="#3a414a" stroke-width=".05" fill="#3a414a"/><path d="M755.2 384.63L740.95 380l14.27-4.63z" fill="#3a414a"/><path d="M755.68 385.3L739.4 380l16.28-5.3zm-13.2-5.3l12.25 3.98v-7.96z" stroke="#3a414a" stroke-width=".05" fill="#3a414a"/><use xlink:href="#d" transform="matrix(1,0,0,1,821.8765432098766,448.57359737656685) translate(0 14.222222222222223)"/><use xlink:href="#j" transform="matrix(1,0,0,1,821.8765432098766,448.57359737656685) translate(81.67901234567901 14.222222222222223)"/><path d="M658.8 526.17h-.95V484.5h.95zm0-63h-.95v-25.8h.95z" stroke="#3a414a" stroke-width=".05" fill="#3a414a"/><path d="M658.8 526.67h-.95v-.52h.95z" fill="#3a414a"/><path stroke="#3a414a" stroke-width=".05" fill="#3a414a"/><path d="M662.96 436.88h-9.27l4.63-14.26z" fill="#3a414a"/><path d="M663.6 437.36h-10.56l5.3-16.28zm-9.26-.95h7.97l-3.97-12.25z" stroke="#3a414a" stroke-width=".05" fill="#3a414a"/><use xlink:href="#d" transform="matrix(1,0,0,1,600.2023472505757,463.1666666666667) translate(0 14.222222222222223)"/><use xlink:href="#j" transform="matrix(1,0,0,1,600.2023472505757,463.1666666666667) translate(81.67901234567901 14.222222222222223)"/><path d="M719.87 642.65l.07.88.2.84.33.8.46.74.56.67.65.56.74.46.8.32.83.2.88.07h83.1v.94h-83.12l-1-.08-1-.23-.92-.4-.87-.52-.78-.65-.67-.78-.53-.86-.38-.93-.24-1-.08-1v-17.62h.95zm162.04.03l-.07 1-.24 1-.4.93-.53.87-.66.78-.76.66-.87.54-.94.4-.98.22-1 .08h-57.07v-.95h57.03l.9-.08.84-.2.8-.33.74-.47.66-.56.56-.66.45-.73.33-.8.2-.84.08-.88v-33.48h.95z" stroke="#3a414a" stroke-width=".05" fill="#3a414a"/><path d="M881.9 609.18h-.94v-.5h.95z" fill="#3a414a"/><path stroke="#3a414a" stroke-width=".05" fill="#3a414a"/><path d="M724.03 624.55h-9.27l4.63-14.26z" fill="#3a414a"/><path d="M724.68 625.03H714.1l5.3-16.28zm-9.27-.95h7.98l-4-12.26z" stroke="#3a414a" stroke-width=".05" fill="#3a414a"/><use xlink:href="#f" transform="matrix(1,0,0,1,808.5032599184489,638.0000000000001) translate(0 14.222222222222223)"/><path d="M983.57 580.63H961.5v-.95h22.07zM1015 543.2l1 .24.94.4.87.52.78.66.66.77.53.86.4.94.23 1 .08.98v24.44l-.08 1-.24.98-.4.94-.52.87-.66.78-.77.66-.86.53-.94.4-1 .23-.98.08-12.8.05-.07.1h-7.7v-.95h7.24l.07-.1 13.2-.06.9-.06.84-.2.8-.34.75-.45.66-.56.57-.65.45-.74.33-.8.2-.84.07-.88v-24.36l-.06-.88-.2-.85-.34-.8-.45-.75-.56-.65-.65-.57-.74-.45-.8-.33-.84-.2-.88-.07h-36.6v-.95h36.64z" stroke="#3a414a" stroke-width=".05" fill="#3a414a"/><path d="M961.5 580.63h-.5v-.95h.5z" fill="#3a414a"/><path stroke="#3a414a" stroke-width=".05" fill="#3a414a"/><path d="M976.88 548.24l-14.26-4.64 14.26-4.63z" fill="#3a414a"/><path d="M977.36 548.9l-16.28-5.3 16.28-5.3zm-13.2-5.3l12.25 3.98v-7.96z" stroke="#3a414a" stroke-width=".05" fill="#3a414a"/><g><use xlink:href="#i" transform="matrix(1,0,0,1,983.5682541902489,569.4905817922056) translate(0 14.222222222222223)"/></g><defs><path fill="#3a414a" d="M63-220v92h138v28H63V0H30v-248h175v28H63" id="k"/><path fill="#3a414a" d="M24-231v-30h32v30H24zM24 0v-190h32V0H24" id="l"/><path fill="#3a414a" d="M114-163C36-179 61-72 57 0H25l-1-190h30c1 12-1 29 2 39 6-27 23-49 58-41v29" id="m"/><path fill="#3a414a" d="M135-143c-3-34-86-38-87 0 15 53 115 12 119 90S17 21 10-45l28-5c4 36 97 45 98 0-10-56-113-15-118-90-4-57 82-63 122-42 12 7 21 19 24 35" id="n"/><path fill="#3a414a" d="M59-47c-2 24 18 29 38 22v24C64 9 27 4 27-40v-127H5v-23h24l9-43h21v43h35v23H59v120" id="o"/><g id="a"><use transform="matrix(0.06172839506172839,0,0,0.06172839506172839,0,0)" xlink:href="#k"/><use transform="matrix(0.06172839506172839,0,0,0.06172839506172839,13.518518518518517,0)" xlink:href="#l"/><use transform="matrix(0.06172839506172839,0,0,0.06172839506172839,18.39506172839506,0)" xlink:href="#m"/><use transform="matrix(0.06172839506172839,0,0,0.06172839506172839,25.74074074074074,0)" xlink:href="#n"/><use transform="matrix(0.06172839506172839,0,0,0.06172839506172839,36.85185185185185,0)" xlink:href="#o"/></g><path fill="#3a414a" d="M30-248c118-7 216 8 213 122C240-48 200 0 122 0H30v-248zM63-27c89 8 146-16 146-99s-60-101-146-95v194" id="p"/><path fill="#3a414a" d="M177-190C167-65 218 103 67 71c-23-6-38-20-44-43l32-5c15 47 100 32 89-28v-30C133-14 115 1 83 1 29 1 15-40 15-95c0-56 16-97 71-98 29-1 48 16 59 35 1-10 0-23 2-32h30zM94-22c36 0 50-32 50-73 0-42-14-75-50-75-39 0-46 34-46 75s6 73 46 73" id="q"/><g id="b"><use transform="matrix(0.06172839506172839,0,0,0.06172839506172839,0,0)" xlink:href="#p"/><use transform="matrix(0.06172839506172839,0,0,0.06172839506172839,15.987654320987653,0)" xlink:href="#l"/><use transform="matrix(0.06172839506172839,0,0,0.06172839506172839,20.864197530864196,0)" xlink:href="#q"/><use transform="matrix(0.06172839506172839,0,0,0.06172839506172839,33.20987654320987,0)" xlink:href="#l"/><use transform="matrix(0.06172839506172839,0,0,0.06172839506172839,38.08641975308642,0)" xlink:href="#o"/></g><path fill="#3a414a" d="M33 0v-248h34V0H33" id="r"/><path fill="#3a414a" d="M117-194c89-4 53 116 60 194h-32v-121c0-31-8-49-39-48C34-167 62-67 57 0H25l-1-190h30c1 10-1 24 2 32 11-22 29-35 61-36" id="s"/><path fill="#3a414a" d="M108 0H70L1-190h34L89-25l56-165h34" id="t"/><path fill="#3a414a" d="M141-36C126-15 110 5 73 4 37 3 15-17 15-53c-1-64 63-63 125-63 3-35-9-54-41-54-24 1-41 7-42 31l-33-3c5-37 33-52 76-52 45 0 72 20 72 64v82c-1 20 7 32 28 27v20c-31 9-61-2-59-35zM48-53c0 20 12 33 32 33 41-3 63-29 60-74-43 2-92-5-92 41" id="u"/><path fill="#3a414a" d="M24 0v-261h32V0H24" id="v"/><path fill="#3a414a" d="M85-194c31 0 48 13 60 33l-1-100h32l1 261h-30c-2-10 0-23-3-31C134-8 116 4 85 4 32 4 16-35 15-94c0-66 23-100 70-100zm9 24c-40 0-46 34-46 75 0 40 6 74 45 74 42 0 51-32 51-76 0-42-9-74-50-73" id="w"/><g id="c"><use transform="matrix(0.06172839506172839,0,0,0.06172839506172839,0,0)" xlink:href="#r"/><use transform="matrix(0.06172839506172839,0,0,0.06172839506172839,6.172839506172839,0)" xlink:href="#s"/><use transform="matrix(0.06172839506172839,0,0,0.06172839506172839,18.51851851851852,0)" xlink:href="#t"/><use transform="matrix(0.06172839506172839,0,0,0.06172839506172839,29.62962962962963,0)" xlink:href="#u"/><use transform="matrix(0.06172839506172839,0,0,0.06172839506172839,41.97530864197531,0)" xlink:href="#v"/><use transform="matrix(0.06172839506172839,0,0,0.06172839506172839,46.851851851851855,0)" xlink:href="#l"/><use transform="matrix(0.06172839506172839,0,0,0.06172839506172839,51.7283950617284,0)" xlink:href="#w"/></g><path fill="#333" d="M199 0l-22-63H83L61 0H9l90-248h61L250 0h-51zm-33-102l-36-108c-10 38-24 72-36 108h72" id="x"/><path fill="#333" d="M135-194c87-1 58 113 63 194h-50c-7-57 23-157-34-157-59 0-34 97-39 157H25l-1-190h47c2 12-1 28 3 38 12-26 28-41 61-42" id="y"/><path fill="#333" d="M123 10C108 53 80 86 19 72V37c35 8 53-11 59-39L3-190h52l48 148c12-52 28-100 44-148h51" id="z"/><path fill="#333" d="M115-3C79 11 28 4 28-45v-112H4v-33h27l15-45h31v45h36v33H77v99c-1 23 16 31 38 25v30" id="A"/><path fill="#333" d="M114-157C55-157 80-60 75 0H25v-261h50l-1 109c12-26 28-41 61-42 86-1 58 113 63 194h-50c-7-57 23-157-34-157" id="B"/><path fill="#333" d="M25-224v-37h50v37H25zM25 0v-190h50V0H25" id="C"/><path fill="#333" d="M195-6C206 82 75 100 31 46c-4-6-6-13-8-21l49-6c3 16 16 24 34 25 40 0 42-37 40-79-11 22-30 35-61 35-53 0-70-43-70-97 0-56 18-96 73-97 30 0 46 14 59 34l2-30h47zm-90-29c32 0 41-27 41-63 0-35-9-62-40-62-32 0-39 29-40 63 0 36 9 62 39 62" id="D"/><g id="d"><use transform="matrix(0.04938271604938272,0,0,0.04938271604938272,0,0)" xlink:href="#x"/><use transform="matrix(0.04938271604938272,0,0,0.04938271604938272,12.790123456790125,0)" xlink:href="#y"/><use transform="matrix(0.04938271604938272,0,0,0.04938271604938272,23.60493827160494,0)" xlink:href="#z"/><use transform="matrix(0.04938271604938272,0,0,0.04938271604938272,33.48148148148148,0)" xlink:href="#A"/><use transform="matrix(0.04938271604938272,0,0,0.04938271604938272,39.358024691358025,0)" xlink:href="#B"/><use transform="matrix(0.04938271604938272,0,0,0.04938271604938272,50.17283950617284,0)" xlink:href="#C"/><use transform="matrix(0.04938271604938272,0,0,0.04938271604938272,55.111111111111114,0)" xlink:href="#y"/><use transform="matrix(0.04938271604938272,0,0,0.04938271604938272,65.92592592592592,0)" xlink:href="#D"/></g><path fill="#333" d="M24 0v-248h195v40H76v63h132v40H76v65h150V0H24" id="E"/><path fill="#333" d="M25 0v-261h50V0H25" id="F"/><path fill="#333" d="M137-138c1-29-70-34-71-4 15 46 118 7 119 86 1 83-164 76-172 9l43-7c4 19 20 25 44 25 33 8 57-30 24-41C81-84 22-81 20-136c-2-80 154-74 161-7" id="G"/><path fill="#333" d="M185-48c-13 30-37 53-82 52C43 2 14-33 14-96s30-98 90-98c62 0 83 45 84 108H66c0 31 8 55 39 56 18 0 30-7 34-22zm-45-69c5-46-57-63-70-21-2 6-4 13-4 21h74" id="H"/><g id="e"><use transform="matrix(0.04938271604938272,0,0,0.04938271604938272,0,0)" xlink:href="#E"/><use transform="matrix(0.04938271604938272,0,0,0.04938271604938272,11.851851851851853,0)" xlink:href="#F"/><use transform="matrix(0.04938271604938272,0,0,0.04938271604938272,16.790123456790127,0)" xlink:href="#G"/><use transform="matrix(0.04938271604938272,0,0,0.04938271604938272,26.666666666666668,0)" xlink:href="#H"/></g><path fill="#333" d="M23 0v-37h61v-169l-59 37v-38l62-41h46v211h57V0H23" id="I"/><use transform="matrix(0.04938271604938272,0,0,0.04938271604938272,0,0)" xlink:href="#I" id="f"/><path fill="#3a414a" d="M140-251c81 0 123 46 123 126C263-46 219 4 140 4 59 4 17-45 17-125s42-126 123-126zm0 227c63 0 89-41 89-101s-29-99-89-99c-61 0-89 39-89 99S79-25 140-24" id="J"/><path fill="#3a414a" d="M100-194c63 0 86 42 84 106H49c0 40 14 67 53 68 26 1 43-12 49-29l28 8c-11 28-37 45-77 45C44 4 14-33 15-96c1-61 26-98 85-98zm52 81c6-60-76-77-97-28-3 7-6 17-6 28h103" id="K"/><g id="g"><use transform="matrix(0.06172839506172839,0,0,0.06172839506172839,0,0)" xlink:href="#J"/><use transform="matrix(0.06172839506172839,0,0,0.06172839506172839,17.28395061728395,0)" xlink:href="#s"/><use transform="matrix(0.06172839506172839,0,0,0.06172839506172839,29.629629629629626,0)" xlink:href="#K"/></g><path fill="#3a414a" d="M209 0H11v-25l151-195H24v-28h176v25L50-27h159V0" id="L"/><path fill="#3a414a" d="M100-194c62-1 85 37 85 99 1 63-27 99-86 99S16-35 15-95c0-66 28-99 85-99zM99-20c44 1 53-31 53-75 0-43-8-75-51-75s-53 32-53 75 10 74 51 75" id="M"/><g id="h"><use transform="matrix(0.06172839506172839,0,0,0.06172839506172839,0,0)" xlink:href="#L"/><use transform="matrix(0.06172839506172839,0,0,0.06172839506172839,13.518518518518517,0)" xlink:href="#K"/><use transform="matrix(0.06172839506172839,0,0,0.06172839506172839,25.864197530864196,0)" xlink:href="#m"/><use transform="matrix(0.06172839506172839,0,0,0.06172839506172839,33.20987654320987,0)" xlink:href="#M"/></g><path fill="#333" d="M101-251c68 0 84 54 84 127C185-50 166 4 99 4S15-52 14-124c-1-75 17-127 87-127zm-1 216c37-5 36-46 36-89s4-89-36-89c-39 0-36 45-36 89 0 43-3 85 36 89" id="N"/><use transform="matrix(0.04938271604938272,0,0,0.04938271604938272,0,0)" xlink:href="#N" id="i"/><g id="j"><use transform="matrix(0.04938271604938272,0,0,0.04938271604938272,0,0)" xlink:href="#H"/><use transform="matrix(0.04938271604938272,0,0,0.04938271604938272,9.876543209876544,0)" xlink:href="#F"/><use transform="matrix(0.04938271604938272,0,0,0.04938271604938272,14.814814814814817,0)" xlink:href="#G"/><use transform="matrix(0.04938271604938272,0,0,0.04938271604938272,24.69135802469136,0)" xlink:href="#H"/></g></defs></g></svg>